# xmcd
#
# Track frame offsets: 
#        150
#        14083
#        17480
#        23360
#        43063
#        59910
#        72853
#        87135
#        99573
#        116156
#        131768
#        134618
#        154226
#        171708
#
# Disc length: 2330 seconds
#
# Revision: 0
# Processed by: cddbd v1.5.2PL0 Copyright (c) Steve Scherf et al.
# Submitted via: ExactAudioCopy v0.95b3
#
DISCID=ca09180e
DTITLE=The Beatles - Get Back
DYEAR=1969
DGENRE=Pop
TTITLE0=One After 909
TTITLE1=Rocker
TTITLE2=Save The Last Dance For Me
TTITLE3=Don't Let Me Down
TTITLE4=I Dig A Pony
TTITLE5=I've Got A Feeling
TTITLE6=Get Back
TTITLE7=For You Blue
TTITLE8=Teddy Boy
TTITLE9=Two Of Us
TTITLE10=Maggie Mae
TTITLE11=Dig It
TTITLE12=Let It Be
TTITLE13=Get Back (Reprise)
EXTD=
EXTT0=
EXTT1=
EXTT2=
EXTT3=
EXTT4=
EXTT5=
EXTT6=
EXTT7=
EXTT8=
EXTT9=
EXTT10=
EXTT11=
EXTT12=
EXTT13=
PLAYORDER=
